<svg width="125" height="59" viewBox="0 0 125 59" fill="none" xmlns="http://www.w3.org/2000/svg">
<g filter="url(#filter0_d_66_30)">
<rect x="4" width="116.28" height="51" rx="25.5" fill="white"/>
</g>
<circle cx="98.86" cy="25.5" r="15.3" fill="black"/>
<path d="M80.5 25.129H109.06M109.06 25.129L101.674 20.3999V29.5799L109.06 25.129Z" stroke="#FEFEFE" stroke-width="5"/>
<path d="M13.0114 32V20.3636H20.8523V22.392H15.4716V25.1648H20.4489V27.1932H15.4716V29.9716H20.875V32H13.0114ZM32.5412 20.3636V32H30.4162L25.3537 24.6761H25.2685V32H22.8082V20.3636H24.9673L29.9901 27.6818H30.0923V20.3636H32.5412ZM36.6761 20.3636L39.4886 29.2045H39.5966L42.4148 20.3636H45.142L41.1307 32H37.9602L33.9432 20.3636H36.6761ZM49.0028 20.3636V32H46.5426V20.3636H49.0028ZM53.0327 32H50.3963L54.4134 20.3636H57.5838L61.5952 32H58.9588L56.044 23.0227H55.9531L53.0327 32ZM52.8679 27.4261H59.0952V29.3466H52.8679V27.4261ZM62.9957 32V20.3636H67.5866C68.4654 20.3636 69.2154 20.5208 69.8366 20.8352C70.4616 21.1458 70.937 21.5871 71.2628 22.1591C71.5923 22.7273 71.7571 23.3958 71.7571 24.1648C71.7571 24.9375 71.5904 25.6023 71.2571 26.1591C70.9238 26.7121 70.4408 27.1364 69.8082 27.4318C69.1795 27.7273 68.4181 27.875 67.5241 27.875H64.4503V25.8977H67.1264C67.5961 25.8977 67.9863 25.8333 68.2969 25.7045C68.6075 25.5758 68.8385 25.3826 68.9901 25.125C69.1454 24.8674 69.223 24.5473 69.223 24.1648C69.223 23.7784 69.1454 23.4527 68.9901 23.1875C68.8385 22.9223 68.6056 22.7216 68.2912 22.5852C67.9806 22.4451 67.5885 22.375 67.1151 22.375H65.456V32H62.9957ZM69.2798 26.7045L72.1719 32H69.456L66.6264 26.7045H69.2798Z" fill="black"/>
<defs>
<filter id="filter0_d_66_30" x="0" y="0" width="124.28" height="59" filterUnits="userSpaceOnUse" color-interpolation-filters="sRGB">
<feFlood flood-opacity="0" result="BackgroundImageFix"/>
<feColorMatrix in="SourceAlpha" type="matrix" values="0 0 0 0 0 0 0 0 0 0 0 0 0 0 0 0 0 0 127 0" result="hardAlpha"/>
<feOffset dy="4"/>
<feGaussianBlur stdDeviation="2"/>
<feComposite in2="hardAlpha" operator="out"/>
<feColorMatrix type="matrix" values="0 0 0 0 0 0 0 0 0 0 0 0 0 0 0 0 0 0 0.25 0"/>
<feBlend mode="normal" in2="BackgroundImageFix" result="effect1_dropShadow_66_30"/>
<feBlend mode="normal" in="SourceGraphic" in2="effect1_dropShadow_66_30" result="shape"/>
</filter>
</defs>
</svg>
