<svg width="125" height="59" viewBox="0 0 125 59" fill="none" xmlns="http://www.w3.org/2000/svg">
<g filter="url(#filter0_d_66_41)">
<rect x="4" width="116.28" height="51" rx="25.5" fill="white"/>
</g>
<circle cx="25.3" cy="25.3" r="15.3" transform="rotate(-180 25.3 25.3)" fill="black"/>
<path d="M43.66 25.6709L15.1 25.6709M15.1 25.6709L22.4862 30.4V21.22L15.1 25.6709Z" stroke="#FEFEFE" stroke-width="5"/>
<path d="M55.1676 32V20.3636H57.6278V29.9716H62.6165V32H55.1676ZM66.706 20.3636V32H64.2457V20.3636H66.706ZM68.7301 20.3636H71.7642L74.9688 28.1818H75.1051L78.3097 20.3636H81.3438V32H78.9574V24.4261H78.8608L75.8494 31.9432H74.2244L71.2131 24.3977H71.1165V32H68.7301V20.3636ZM83.3707 32V20.3636H87.9616C88.8442 20.3636 89.5961 20.5322 90.2173 20.8693C90.8385 21.2027 91.312 21.6667 91.6378 22.2614C91.9673 22.8523 92.1321 23.5341 92.1321 24.3068C92.1321 25.0795 91.9654 25.7614 91.6321 26.3523C91.2988 26.9432 90.8158 27.4034 90.1832 27.733C89.5545 28.0625 88.7931 28.2273 87.8991 28.2273H84.973V26.2557H87.5014C87.9749 26.2557 88.3651 26.1742 88.6719 26.0114C88.9825 25.8447 89.2135 25.6155 89.3651 25.3239C89.5204 25.0284 89.598 24.6894 89.598 24.3068C89.598 23.9205 89.5204 23.5833 89.3651 23.2955C89.2135 23.0038 88.9825 22.7784 88.6719 22.6193C88.3613 22.4564 87.9673 22.375 87.4901 22.375H85.831V32H83.3707ZM94.392 32H91.7557L95.7727 20.3636H98.9432L102.955 32H100.318L97.4034 23.0227H97.3125L94.392 32ZM94.2273 27.4261H100.455V29.3466H94.2273V27.4261ZM104.355 32V20.3636H108.946C109.825 20.3636 110.575 20.5208 111.196 20.8352C111.821 21.1458 112.296 21.5871 112.622 22.1591C112.952 22.7273 113.116 23.3958 113.116 24.1648C113.116 24.9375 112.95 25.6023 112.616 26.1591C112.283 26.7121 111.8 27.1364 111.168 27.4318C110.539 27.7273 109.777 27.875 108.884 27.875H105.81V25.8977H108.486C108.955 25.8977 109.346 25.8333 109.656 25.7045C109.967 25.5758 110.198 25.3826 110.349 25.125C110.505 24.8674 110.582 24.5473 110.582 24.1648C110.582 23.7784 110.505 23.4527 110.349 23.1875C110.198 22.9223 109.965 22.7216 109.651 22.5852C109.34 22.4451 108.948 22.375 108.474 22.375H106.815V32H104.355ZM110.639 26.7045L113.531 32H110.815L107.986 26.7045H110.639Z" fill="black"/>
<defs>
<filter id="filter0_d_66_41" x="0" y="0" width="124.28" height="59" filterUnits="userSpaceOnUse" color-interpolation-filters="sRGB">
<feFlood flood-opacity="0" result="BackgroundImageFix"/>
<feColorMatrix in="SourceAlpha" type="matrix" values="0 0 0 0 0 0 0 0 0 0 0 0 0 0 0 0 0 0 127 0" result="hardAlpha"/>
<feOffset dy="4"/>
<feGaussianBlur stdDeviation="2"/>
<feComposite in2="hardAlpha" operator="out"/>
<feColorMatrix type="matrix" values="0 0 0 0 0 0 0 0 0 0 0 0 0 0 0 0 0 0 0.25 0"/>
<feBlend mode="normal" in2="BackgroundImageFix" result="effect1_dropShadow_66_41"/>
<feBlend mode="normal" in="SourceGraphic" in2="effect1_dropShadow_66_41" result="shape"/>
</filter>
</defs>
</svg>
