<svg width="117" height="51" viewBox="0 0 117 51" fill="none" xmlns="http://www.w3.org/2000/svg">
<rect width="116.28" height="51" rx="25.5" fill="white"/>
<circle cx="94.86" cy="25.5" r="15.3" fill="black"/>
<path d="M76.5 25.1291H105.06M105.06 25.1291L97.6738 20.4V29.58L105.06 25.1291Z" stroke="#FEFEFE" stroke-width="5"/>
<path d="M25.5584 24.7575H23.0698C23.0243 24.4355 22.9315 24.1495 22.7914 23.8995C22.6512 23.6458 22.4713 23.4298 22.2516 23.2518C22.0319 23.0738 21.7781 22.9374 21.4903 22.8427C21.2062 22.748 20.8975 22.7007 20.5641 22.7007C19.9618 22.7007 19.4372 22.8503 18.9903 23.1495C18.5433 23.445 18.1967 23.8768 17.9505 24.445C17.7043 25.0094 17.5812 25.695 17.5812 26.5018C17.5812 27.3314 17.7043 28.0283 17.9505 28.5927C18.2005 29.1571 18.549 29.5833 18.9959 29.8711C19.4429 30.159 19.96 30.303 20.5471 30.303C20.8766 30.303 21.1815 30.2594 21.4618 30.1723C21.7459 30.0852 21.9978 29.9583 22.2175 29.7916C22.4372 29.6211 22.619 29.4147 22.763 29.1723C22.9107 28.9298 23.013 28.6533 23.0698 28.3427L25.5584 28.3541C25.494 28.8882 25.3331 29.4033 25.0755 29.8995C24.8217 30.392 24.4789 30.8333 24.0471 31.2234C23.619 31.6098 23.1077 31.9166 22.513 32.1439C21.9221 32.3673 21.2535 32.4791 20.5073 32.4791C19.4694 32.4791 18.5414 32.2442 17.7232 31.7745C16.9088 31.3048 16.2649 30.6249 15.7914 29.7348C15.3217 28.8446 15.0868 27.767 15.0868 26.5018C15.0868 25.2329 15.3255 24.1533 15.8028 23.2632C16.28 22.373 16.9278 21.695 17.7459 21.2291C18.5641 20.7594 19.4846 20.5245 20.5073 20.5245C21.1815 20.5245 21.8065 20.6192 22.3823 20.8086C22.9618 20.998 23.4751 21.2745 23.9221 21.6382C24.369 21.998 24.7327 22.4393 25.013 22.962C25.2971 23.4848 25.4789 24.0833 25.5584 24.7575ZM27.3226 32.32V20.6836H31.9136C32.7923 20.6836 33.5423 20.8408 34.1636 21.1552C34.7886 21.4658 35.2639 21.9071 35.5897 22.4791C35.9192 23.0473 36.084 23.7158 36.084 24.4848C36.084 25.2575 35.9173 25.9223 35.584 26.4791C35.2507 27.0321 34.7677 27.4564 34.1351 27.7518C33.5064 28.0473 32.745 28.195 31.8511 28.195H28.7772V26.2177H31.4533C31.923 26.2177 32.3132 26.1533 32.6238 26.0245C32.9344 25.8958 33.1654 25.7026 33.317 25.445C33.4723 25.1874 33.5499 24.8673 33.5499 24.4848C33.5499 24.0984 33.4723 23.7727 33.317 23.5075C33.1654 23.2423 32.9325 23.0416 32.6181 22.9052C32.3075 22.7651 31.9154 22.695 31.442 22.695H29.7829V32.32H27.3226ZM33.6067 27.0245L36.4988 32.32H33.7829L30.9533 27.0245H33.6067ZM40.2829 20.6836V32.32H37.8226V20.6836H40.2829ZM44.3127 32.32H41.6763L45.6934 20.6836H48.8638L52.8752 32.32H50.2388L47.3241 23.3427H47.2332L44.3127 32.32ZM44.1479 27.7461H50.3752V29.6666H44.1479V27.7461ZM54.2758 32.32V20.6836H58.8667C59.7455 20.6836 60.4955 20.8408 61.1167 21.1552C61.7417 21.4658 62.2171 21.9071 62.5428 22.4791C62.8724 23.0473 63.0371 23.7158 63.0371 24.4848C63.0371 25.2575 62.8705 25.9223 62.5371 26.4791C62.2038 27.0321 61.7208 27.4564 61.0883 27.7518C60.4595 28.0473 59.6981 28.195 58.8042 28.195H55.7303V26.2177H58.4064C58.8761 26.2177 59.2663 26.1533 59.5769 26.0245C59.8875 25.8958 60.1186 25.7026 60.2701 25.445C60.4254 25.1874 60.503 24.8673 60.503 24.4848C60.503 24.0984 60.4254 23.7727 60.2701 23.5075C60.1186 23.2423 59.8856 23.0416 59.5712 22.9052C59.2606 22.7651 58.8686 22.695 58.3951 22.695H56.736V32.32H54.2758ZM60.5599 27.0245L63.4519 32.32H60.736L57.9064 27.0245H60.5599Z" fill="black"/>
</svg>
