<svg width="117" height="51" viewBox="0 0 117 51" fill="none" xmlns="http://www.w3.org/2000/svg">
<rect x="1" y="1" width="114.28" height="49" rx="24.5" fill="white" stroke="#00B007" stroke-width="2"/>
<path d="M9.09605 31V19.3636H16.937V21.392H11.5563V24.1648H16.5336V26.1932H11.5563V28.9716H16.9597V31H9.09605ZM28.3059 19.3636V31H26.1809L21.1184 23.6761H21.0332V31H18.5729V19.3636H20.732L25.7547 26.6818H25.857V19.3636H28.3059ZM37.7345 23.125C37.6549 22.8485 37.5432 22.6042 37.3992 22.392C37.2553 22.1761 37.0792 21.9943 36.8708 21.8466C36.6663 21.6951 36.4314 21.5795 36.1663 21.5C35.9049 21.4205 35.6151 21.3807 35.297 21.3807C34.7023 21.3807 34.1795 21.5284 33.7288 21.8239C33.2818 22.1193 32.9333 22.5492 32.6833 23.1136C32.4333 23.6742 32.3083 24.3598 32.3083 25.1705C32.3083 25.9811 32.4314 26.6705 32.6776 27.2386C32.9239 27.8068 33.2723 28.2405 33.7231 28.5398C34.1739 28.8352 34.7061 28.983 35.3197 28.983C35.8765 28.983 36.3519 28.8845 36.7458 28.6875C37.1436 28.4867 37.4466 28.2045 37.6549 27.8409C37.867 27.4773 37.9731 27.0473 37.9731 26.5511L38.4731 26.625H35.4731V24.7727H40.3424V26.2386C40.3424 27.2614 40.1265 28.1402 39.6947 28.875C39.2629 29.6061 38.6682 30.1705 37.9106 30.5682C37.153 30.9621 36.2856 31.1591 35.3083 31.1591C34.2174 31.1591 33.2591 30.9186 32.4333 30.4375C31.6076 29.9527 30.9636 29.2652 30.5015 28.375C30.0432 27.4811 29.814 26.4205 29.814 25.1932C29.814 24.25 29.9504 23.4091 30.2231 22.6705C30.4996 21.928 30.886 21.2992 31.3822 20.7841C31.8784 20.2689 32.4561 19.8769 33.1151 19.608C33.7742 19.339 34.4882 19.2045 35.2572 19.2045C35.9163 19.2045 36.5299 19.3011 37.0981 19.4943C37.6663 19.6837 38.1701 19.9527 38.6095 20.3011C39.0526 20.6496 39.4144 21.0644 39.6947 21.5455C39.975 22.0227 40.1549 22.5492 40.2345 23.125H37.7345ZM41.8704 31V19.3636H46.4613C47.3401 19.3636 48.0901 19.5208 48.7113 19.8352C49.3363 20.1458 49.8117 20.5871 50.1375 21.1591C50.467 21.7273 50.6318 22.3958 50.6318 23.1648C50.6318 23.9375 50.4651 24.6023 50.1318 25.1591C49.7985 25.7121 49.3155 26.1364 48.6829 26.4318C48.0541 26.7273 47.2928 26.875 46.3988 26.875H43.325V24.8977H46.0011C46.4708 24.8977 46.861 24.8333 47.1716 24.7045C47.4822 24.5758 47.7132 24.3826 47.8647 24.125C48.02 23.8674 48.0977 23.5473 48.0977 23.1648C48.0977 22.7784 48.02 22.4527 47.8647 22.1875C47.7132 21.9223 47.4803 21.7216 47.1659 21.5852C46.8553 21.4451 46.4632 21.375 45.9897 21.375H44.3307V31H41.8704ZM48.1545 25.7045L51.0466 31H48.3307L45.5011 25.7045H48.1545ZM54.0561 31H51.4197L55.4368 19.3636H58.6072L62.6186 31H59.9822L57.0675 22.0227H56.9766L54.0561 31ZM53.8913 26.4261H60.1186V28.3466H53.8913V26.4261ZM73.4193 23.4375H70.9307C70.8853 23.1155 70.7925 22.8295 70.6523 22.5795C70.5122 22.3258 70.3322 22.1098 70.1125 21.9318C69.8928 21.7538 69.639 21.6174 69.3512 21.5227C69.0671 21.428 68.7584 21.3807 68.425 21.3807C67.8228 21.3807 67.2981 21.5303 66.8512 21.8295C66.4042 22.125 66.0576 22.5568 65.8114 23.125C65.5652 23.6894 65.4421 24.375 65.4421 25.1818C65.4421 26.0114 65.5652 26.7083 65.8114 27.2727C66.0614 27.8371 66.4099 28.2633 66.8568 28.5511C67.3038 28.839 67.8209 28.983 68.408 28.983C68.7375 28.983 69.0425 28.9394 69.3228 28.8523C69.6068 28.7652 69.8587 28.6383 70.0784 28.4716C70.2981 28.3011 70.48 28.0947 70.6239 27.8523C70.7716 27.6098 70.8739 27.3333 70.9307 27.0227L73.4193 27.0341C73.355 27.5682 73.194 28.0833 72.9364 28.5795C72.6826 29.072 72.3398 29.5133 71.908 29.9034C71.48 30.2898 70.9686 30.5966 70.3739 30.8239C69.783 31.0473 69.1144 31.1591 68.3682 31.1591C67.3303 31.1591 66.4023 30.9242 65.5841 30.4545C64.7697 29.9848 64.1258 29.3049 63.6523 28.4148C63.1826 27.5246 62.9478 26.447 62.9478 25.1818C62.9478 23.9129 63.1864 22.8333 63.6637 21.9432C64.1409 21.053 64.7887 20.375 65.6068 19.9091C66.425 19.4394 67.3455 19.2045 68.3682 19.2045C69.0425 19.2045 69.6675 19.2992 70.2432 19.4886C70.8228 19.678 71.336 19.9545 71.783 20.3182C72.23 20.678 72.5936 21.1193 72.8739 21.642C73.158 22.1648 73.3398 22.7633 73.4193 23.4375ZM67.7603 30.9659H68.8739L68.783 31.4602C69.1731 31.5208 69.4913 31.6667 69.7375 31.8977C69.9875 32.1288 70.1144 32.4432 70.1182 32.8409C70.122 33.4053 69.8606 33.8542 69.3341 34.1875C68.8076 34.5246 68.069 34.6932 67.1182 34.6932L67.0955 33.6136C67.5728 33.6136 67.9459 33.5549 68.2148 33.4375C68.4875 33.3239 68.6296 33.1458 68.6409 32.9034C68.6485 32.6723 68.5595 32.4962 68.3739 32.375C68.1883 32.2538 67.8985 32.1686 67.5046 32.1193L67.7603 30.9659ZM76.6505 31H74.0141L78.0312 19.3636H81.2016L85.213 31H82.5766L79.6618 22.0227H79.5709L76.6505 31ZM76.4857 26.4261H82.713V28.3466H76.4857V26.4261ZM90.4186 31H86.2936V19.3636H90.4526C91.6231 19.3636 92.6307 19.5966 93.4754 20.0625C94.3201 20.5246 94.9697 21.1894 95.4242 22.0568C95.8826 22.9242 96.1117 23.9621 96.1117 25.1705C96.1117 26.3826 95.8826 27.4242 95.4242 28.2955C94.9697 29.1667 94.3163 29.8352 93.464 30.3011C92.6155 30.767 91.6004 31 90.4186 31ZM88.7538 28.892H90.3163C91.0436 28.892 91.6553 28.7633 92.1515 28.5057C92.6515 28.2443 93.0265 27.8409 93.2765 27.2955C93.5303 26.7462 93.6572 26.0379 93.6572 25.1705C93.6572 24.3106 93.5303 23.608 93.2765 23.0625C93.0265 22.517 92.6534 22.1155 92.1572 21.858C91.661 21.6004 91.0492 21.4716 90.322 21.4716H88.7538V28.892ZM98.9636 31H96.3272L100.344 19.3636H103.515L107.526 31H104.89L101.975 22.0227H101.884L98.9636 31ZM98.7988 26.4261H105.026V28.3466H98.7988V26.4261Z" fill="black"/>
</svg>
