<svg width="117" height="51" viewBox="0 0 117 51" fill="none" xmlns="http://www.w3.org/2000/svg">
<rect x="1" y="1" width="114.28" height="49" rx="24.5" fill="white" stroke="black" stroke-width="2"/>
<path d="M19.6428 23.4375H17.1541C17.1087 23.1155 17.0159 22.8295 16.8757 22.5795C16.7356 22.3258 16.5557 22.1098 16.336 21.9318C16.1163 21.7538 15.8625 21.6174 15.5746 21.5227C15.2905 21.428 14.9818 21.3807 14.6485 21.3807C14.0462 21.3807 13.5216 21.5303 13.0746 21.8295C12.6276 22.125 12.281 22.5568 12.0348 23.125C11.7886 23.6894 11.6655 24.375 11.6655 25.1818C11.6655 26.0114 11.7886 26.7083 12.0348 27.2727C12.2848 27.8371 12.6333 28.2633 13.0803 28.5511C13.5273 28.839 14.0443 28.983 14.6314 28.983C14.961 28.983 15.2659 28.9394 15.5462 28.8523C15.8303 28.7652 16.0822 28.6383 16.3019 28.4716C16.5216 28.3011 16.7034 28.0947 16.8473 27.8523C16.9951 27.6098 17.0973 27.3333 17.1541 27.0227L19.6428 27.0341C19.5784 27.5682 19.4174 28.0833 19.1598 28.5795C18.906 29.072 18.5632 29.5133 18.1314 29.9034C17.7034 30.2898 17.192 30.5966 16.5973 30.8239C16.0064 31.0473 15.3379 31.1591 14.5916 31.1591C13.5538 31.1591 12.6257 30.9242 11.8076 30.4545C10.9932 29.9848 10.3492 29.3049 9.87574 28.4148C9.40604 27.5246 9.17119 26.447 9.17119 25.1818C9.17119 23.9129 9.40983 22.8333 9.8871 21.9432C10.3644 21.053 11.0121 20.375 11.8303 19.9091C12.6485 19.4394 13.5689 19.2045 14.5916 19.2045C15.2659 19.2045 15.8909 19.2992 16.4666 19.4886C17.0462 19.678 17.5595 19.9545 18.0064 20.3182C18.4534 20.678 18.817 21.1193 19.0973 21.642C19.3814 22.1648 19.5632 22.7633 19.6428 23.4375ZM31.4602 25.1818C31.4602 26.4508 31.2196 27.5303 30.7386 28.4205C30.2613 29.3106 29.6098 29.9905 28.784 30.4602C27.9621 30.9261 27.0378 31.1591 26.0113 31.1591C24.9772 31.1591 24.0492 30.9242 23.2272 30.4545C22.4052 29.9848 21.7556 29.3049 21.2784 28.4148C20.8011 27.5246 20.5624 26.447 20.5624 25.1818C20.5624 23.9129 20.8011 22.8333 21.2784 21.9432C21.7556 21.053 22.4052 20.375 23.2272 19.9091C24.0492 19.4394 24.9772 19.2045 26.0113 19.2045C27.0378 19.2045 27.9621 19.4394 28.784 19.9091C29.6098 20.375 30.2613 21.053 30.7386 21.9432C31.2196 22.8333 31.4602 23.9129 31.4602 25.1818ZM28.9659 25.1818C28.9659 24.3598 28.8427 23.6667 28.5965 23.1023C28.3541 22.5379 28.0113 22.1098 27.5681 21.8182C27.1249 21.5265 26.606 21.3807 26.0113 21.3807C25.4166 21.3807 24.8977 21.5265 24.4545 21.8182C24.0113 22.1098 23.6666 22.5379 23.4204 23.1023C23.178 23.6667 23.0568 24.3598 23.0568 25.1818C23.0568 26.0038 23.178 26.697 23.4204 27.2614C23.6666 27.8258 24.0113 28.2538 24.4545 28.5455C24.8977 28.8371 25.4166 28.983 26.0113 28.983C26.606 28.983 27.1249 28.8371 27.5681 28.5455C28.0113 28.2538 28.3541 27.8258 28.5965 27.2614C28.8427 26.697 28.9659 26.0038 28.9659 25.1818ZM42.3756 19.3636V31H40.2506L35.1881 23.6761H35.1028V31H32.6426V19.3636H34.8017L39.8244 26.6818H39.9267V19.3636H42.3756ZM54.0353 23.4375H51.5467C51.5012 23.1155 51.4084 22.8295 51.2682 22.5795C51.1281 22.3258 50.9482 22.1098 50.7285 21.9318C50.5088 21.7538 50.255 21.6174 49.9671 21.5227C49.683 21.428 49.3743 21.3807 49.041 21.3807C48.4387 21.3807 47.9141 21.5303 47.4671 21.8295C47.0201 22.125 46.6735 22.5568 46.4273 23.125C46.1811 23.6894 46.058 24.375 46.058 25.1818C46.058 26.0114 46.1811 26.7083 46.4273 27.2727C46.6773 27.8371 47.0258 28.2633 47.4728 28.5511C47.9198 28.839 48.4368 28.983 49.0239 28.983C49.3535 28.983 49.6584 28.9394 49.9387 28.8523C50.2228 28.7652 50.4747 28.6383 50.6944 28.4716C50.9141 28.3011 51.0959 28.0947 51.2398 27.8523C51.3876 27.6098 51.4898 27.3333 51.5467 27.0227L54.0353 27.0341C53.9709 27.5682 53.8099 28.0833 53.5523 28.5795C53.2985 29.072 52.9557 29.5133 52.5239 29.9034C52.0959 30.2898 51.5845 30.5966 50.9898 30.8239C50.3989 31.0473 49.7304 31.1591 48.9842 31.1591C47.9463 31.1591 47.0182 30.9242 46.2001 30.4545C45.3857 29.9848 44.7417 29.3049 44.2682 28.4148C43.7985 27.5246 43.5637 26.447 43.5637 25.1818C43.5637 23.9129 43.8023 22.8333 44.2796 21.9432C44.7569 21.053 45.4046 20.375 46.2228 19.9091C47.041 19.4394 47.9614 19.2045 48.9842 19.2045C49.6584 19.2045 50.2834 19.2992 50.8592 19.4886C51.4387 19.678 51.952 19.9545 52.3989 20.3182C52.8459 20.678 53.2095 21.1193 53.4898 21.642C53.7739 22.1648 53.9557 22.7633 54.0353 23.4375ZM55.1595 31V19.3636H63.0004V21.392H57.6197V24.1648H62.597V26.1932H57.6197V28.9716H63.0231V31H55.1595ZM66.7766 19.3636V31H64.3164V19.3636H66.7766ZM67.7176 21.392V19.3636H77.2744V21.392H73.7119V31H71.2801V21.392H67.7176ZM85.3957 19.3636H87.856V26.9205C87.856 27.7689 87.6533 28.5114 87.248 29.1477C86.8465 29.7841 86.284 30.2803 85.5605 30.6364C84.837 30.9886 83.9942 31.1648 83.0321 31.1648C82.0662 31.1648 81.2215 30.9886 80.498 30.6364C79.7745 30.2803 79.212 29.7841 78.8105 29.1477C78.409 28.5114 78.2082 27.7689 78.2082 26.9205V19.3636H80.6685V26.7102C80.6685 27.1534 80.7651 27.5473 80.9582 27.892C81.1552 28.2367 81.4317 28.5076 81.7878 28.7045C82.1438 28.9015 82.5586 29 83.0321 29C83.5094 29 83.9241 28.9015 84.2764 28.7045C84.6325 28.5076 84.9071 28.2367 85.1003 27.892C85.2972 27.5473 85.3957 27.1534 85.3957 26.7102V19.3636ZM91.2458 31H88.6094L92.6265 19.3636H95.7969L99.8083 31H97.1719L94.2572 22.0227H94.1662L91.2458 31ZM91.081 26.4261H97.3083V28.3466H91.081V26.4261ZM100.569 31V19.3636H103.029V28.9716H108.018V31H100.569Z" fill="black"/>
</svg>
