<svg width="117" height="51" viewBox="0 0 117 51" fill="none" xmlns="http://www.w3.org/2000/svg">
<rect x="1" y="1" width="114.28" height="49" rx="24.5" fill="white" stroke="black" stroke-width="2"/>
<path d="M20.4347 23.4375H17.946C17.9006 23.1155 17.8078 22.8295 17.6676 22.5795C17.5275 22.3258 17.3475 22.1098 17.1278 21.9318C16.9081 21.7538 16.6544 21.6174 16.3665 21.5227C16.0824 21.428 15.7737 21.3807 15.4403 21.3807C14.8381 21.3807 14.3134 21.5303 13.8665 21.8295C13.4195 22.125 13.0729 22.5568 12.8267 23.125C12.5805 23.6894 12.4574 24.375 12.4574 25.1818C12.4574 26.0114 12.5805 26.7083 12.8267 27.2727C13.0767 27.8371 13.4252 28.2633 13.8722 28.5511C14.3191 28.839 14.8362 28.983 15.4233 28.983C15.7528 28.983 16.0578 28.9394 16.3381 28.8523C16.6222 28.7652 16.8741 28.6383 17.0938 28.4716C17.3134 28.3011 17.4953 28.0947 17.6392 27.8523C17.7869 27.6098 17.8892 27.3333 17.946 27.0227L20.4347 27.0341C20.3703 27.5682 20.2093 28.0833 19.9517 28.5795C19.6979 29.072 19.3551 29.5133 18.9233 29.9034C18.4953 30.2898 17.9839 30.5966 17.3892 30.8239C16.7983 31.0473 16.1297 31.1591 15.3835 31.1591C14.3456 31.1591 13.4176 30.9242 12.5994 30.4545C11.785 29.9848 11.1411 29.3049 10.6676 28.4148C10.1979 27.5246 9.96307 26.447 9.96307 25.1818C9.96307 23.9129 10.2017 22.8333 10.679 21.9432C11.1563 21.053 11.804 20.375 12.6222 19.9091C13.4403 19.4394 14.3608 19.2045 15.3835 19.2045C16.0578 19.2045 16.6828 19.2992 17.2585 19.4886C17.8381 19.678 18.3513 19.9545 18.7983 20.3182C19.2453 20.678 19.6089 21.1193 19.8892 21.642C20.1733 22.1648 20.3551 22.7633 20.4347 23.4375ZM22.1989 31V19.3636H24.6591V24.1648H29.6534V19.3636H32.108V31H29.6534V26.1932H24.6591V31H22.1989ZM36.142 31H33.5057L37.5227 19.3636H40.6932L44.7045 31H42.0682L39.1534 22.0227H39.0625L36.142 31ZM35.9773 26.4261H42.2045V28.3466H35.9773V26.4261ZM46.1051 19.3636H49.1392L52.3438 27.1818H52.4801L55.6847 19.3636H58.7188V31H56.3324V23.4261H56.2358L53.2244 30.9432H51.5994L48.5881 23.3977H48.4915V31H46.1051V19.3636ZM62.7514 31H60.1151L64.1321 19.3636H67.3026L71.3139 31H68.6776L65.7628 22.0227H65.6719L62.7514 31ZM62.5866 26.4261H68.8139V28.3466H62.5866V26.4261ZM70.8494 21.392V19.3636H80.4062V21.392H76.8438V31H74.4119V21.392H70.8494ZM84.4403 19.3636V31H81.9801V19.3636H84.4403ZM88.5668 19.3636L91.3793 28.2045H91.4872L94.3054 19.3636H97.0327L93.0213 31H89.8509L85.8338 19.3636H88.5668ZM98.892 31H96.2557L100.273 19.3636H103.443L107.455 31H104.818L101.903 22.0227H101.812L98.892 31ZM98.7273 26.4261H104.955V28.3466H98.7273V26.4261Z" fill="black"/>
</svg>
