<svg width="117" height="51" viewBox="0 0 117 51" fill="none" xmlns="http://www.w3.org/2000/svg">
<rect x="1" y="1" width="114.28" height="49" rx="24.5" fill="white" stroke="black" stroke-width="2"/>
<path d="M41.3942 31H37.2692V19.3636H41.4283C42.5987 19.3636 43.6063 19.5966 44.451 20.0625C45.2957 20.5246 45.9453 21.1894 46.3999 22.0568C46.8582 22.9242 47.0874 23.9621 47.0874 25.1705C47.0874 26.3826 46.8582 27.4242 46.3999 28.2955C45.9453 29.1667 45.2919 29.8352 44.4396 30.3011C43.5911 30.767 42.576 31 41.3942 31ZM39.7294 28.892H41.2919C42.0192 28.892 42.6309 28.7633 43.1271 28.5057C43.6271 28.2443 44.0021 27.8409 44.2521 27.2955C44.5059 26.7462 44.6328 26.0379 44.6328 25.1705C44.6328 24.3106 44.5059 23.608 44.2521 23.0625C44.0021 22.517 43.629 22.1155 43.1328 21.858C42.6366 21.6004 42.0249 21.4716 41.2976 21.4716H39.7294V28.892ZM50.2592 31H47.6229L51.6399 19.3636H54.8104L58.8217 31H56.1854L53.2706 22.0227H53.1797L50.2592 31ZM50.0945 26.4261H56.3217V28.3466H50.0945V26.4261ZM60.2223 31V19.3636H64.8132C65.692 19.3636 66.442 19.5208 67.0632 19.8352C67.6882 20.1458 68.1636 20.5871 68.4893 21.1591C68.8189 21.7273 68.9837 22.3958 68.9837 23.1648C68.9837 23.9375 68.817 24.6023 68.4837 25.1591C68.1503 25.7121 67.6674 26.1364 67.0348 26.4318C66.406 26.7273 65.6446 26.875 64.7507 26.875H61.6768V24.8977H64.353C64.8227 24.8977 65.2128 24.8333 65.5234 24.7045C65.834 24.5758 66.0651 24.3826 66.2166 24.125C66.3719 23.8674 66.4496 23.5473 66.4496 23.1648C66.4496 22.7784 66.3719 22.4527 66.2166 22.1875C66.0651 21.9223 65.8321 21.7216 65.5178 21.5852C65.2071 21.4451 64.8151 21.375 64.3416 21.375H62.6825V31H60.2223ZM66.5064 25.7045L69.3984 31H66.6825L63.853 25.7045H66.5064ZM70.7223 31V19.3636H73.1825V24.4943H73.3359L77.5234 19.3636H80.4723L76.1541 24.5739L80.5234 31H77.5803L74.3928 26.2159L73.1825 27.6932V31H70.7223Z" fill="black"/>
</svg>
