<svg width="117" height="51" viewBox="0 0 117 51" fill="none" xmlns="http://www.w3.org/2000/svg">
<rect x="1" y="1" width="114.28" height="49" rx="24.5" fill="white" stroke="black" stroke-width="2"/>
<path d="M14.3864 31V19.3636H18.9773C19.8598 19.3636 20.6117 19.5322 21.233 19.8693C21.8542 20.2027 22.3277 20.6667 22.6534 21.2614C22.983 21.8523 23.1477 22.5341 23.1477 23.3068C23.1477 24.0795 22.9811 24.7614 22.6477 25.3523C22.3144 25.9432 21.8314 26.4034 21.1989 26.733C20.5701 27.0625 19.8087 27.2273 18.9148 27.2273H15.9886V25.2557H18.517C18.9905 25.2557 19.3807 25.1742 19.6875 25.0114C19.9981 24.8447 20.2292 24.6155 20.3807 24.3239C20.536 24.0284 20.6136 23.6894 20.6136 23.3068C20.6136 22.9205 20.536 22.5833 20.3807 22.2955C20.2292 22.0038 19.9981 21.7784 19.6875 21.6193C19.3769 21.4564 18.983 21.375 18.5057 21.375H16.8466V31H14.3864ZM24.7457 31V19.3636H32.5866V21.392H27.206V24.1648H32.1832V26.1932H27.206V28.9716H32.6094V31H24.7457ZM44.2756 19.3636V31H42.1506L37.0881 23.6761H37.0028V31H34.5426V19.3636H36.7017L41.7244 26.6818H41.8267V19.3636H44.2756ZM52.6207 22.7102C52.5753 22.2519 52.3802 21.8958 52.0355 21.642C51.6908 21.3883 51.223 21.2614 50.6321 21.2614C50.2306 21.2614 49.8916 21.3182 49.6151 21.4318C49.3385 21.5417 49.1264 21.6951 48.9787 21.892C48.8348 22.089 48.7628 22.3125 48.7628 22.5625C48.7552 22.7708 48.7988 22.9527 48.8935 23.108C48.992 23.2633 49.1264 23.3977 49.2969 23.5114C49.4673 23.6212 49.6643 23.7178 49.8878 23.8011C50.1113 23.8807 50.3499 23.9489 50.6037 24.0057L51.6491 24.2557C52.1567 24.3693 52.6226 24.5208 53.0469 24.7102C53.4711 24.8996 53.8385 25.1326 54.1491 25.4091C54.4598 25.6856 54.7003 26.0114 54.8707 26.3864C55.045 26.7614 55.134 27.1913 55.1378 27.6761C55.134 28.3883 54.9522 29.0057 54.5923 29.5284C54.2363 30.0473 53.7211 30.4508 53.0469 30.7386C52.3764 31.0227 51.5677 31.1648 50.6207 31.1648C49.6813 31.1648 48.8632 31.0208 48.1662 30.733C47.473 30.4451 46.9313 30.0189 46.5412 29.4545C46.1548 28.8864 45.9522 28.1837 45.9332 27.3466H48.3139C48.3404 27.7367 48.4522 28.0625 48.6491 28.3239C48.8499 28.5814 49.117 28.7765 49.4503 28.9091C49.7874 29.0379 50.1681 29.1023 50.5923 29.1023C51.009 29.1023 51.3707 29.0417 51.6776 28.9205C51.9882 28.7992 52.2287 28.6307 52.3991 28.4148C52.5696 28.1989 52.6548 27.9508 52.6548 27.6705C52.6548 27.4091 52.5772 27.1894 52.4219 27.0114C52.2704 26.8333 52.0469 26.6818 51.7514 26.5568C51.4598 26.4318 51.1018 26.3182 50.6776 26.2159L49.4105 25.8977C48.4295 25.6591 47.6548 25.286 47.0866 24.7784C46.5185 24.2708 46.2363 23.5871 46.2401 22.7273C46.2363 22.0227 46.4238 21.4072 46.8026 20.8807C47.1851 20.3542 47.7098 19.9432 48.3764 19.6477C49.0431 19.3523 49.8007 19.2045 50.6491 19.2045C51.5128 19.2045 52.2666 19.3523 52.9105 19.6477C53.5582 19.9432 54.062 20.3542 54.4219 20.8807C54.7817 21.4072 54.9673 22.017 54.9787 22.7102H52.6207ZM58.5327 31H55.8963L59.9134 19.3636H63.0838L67.0952 31H64.4588L61.544 22.0227H61.4531L58.5327 31ZM58.3679 26.4261H64.5952V28.3466H58.3679V26.4261ZM66.6307 21.392V19.3636H76.1875V21.392H72.625V31H70.1932V21.392H66.6307ZM80.2216 19.3636V31H77.7614V19.3636H80.2216ZM84.348 19.3636L87.1605 28.2045H87.2685L90.0866 19.3636H92.8139L88.8026 31H85.6321L81.6151 19.3636H84.348ZM94.6733 31H92.0369L96.054 19.3636H99.2244L103.236 31H100.599L97.6847 22.0227H97.5938L94.6733 31ZM94.5085 26.4261H100.736V28.3466H94.5085V26.4261Z" fill="black"/>
</svg>
