<svg width="117" height="51" viewBox="0 0 117 51" fill="none" xmlns="http://www.w3.org/2000/svg">
<rect x="1" y="1" width="114.28" height="49" rx="24.5" fill="white" stroke="black" stroke-width="2"/>
<path d="M19.152 31V19.3636H26.9929V21.392H21.6122V24.1648H26.5895V26.1932H21.6122V28.9716H27.0156V31H19.152ZM35.2614 22.7102C35.2159 22.2519 35.0208 21.8958 34.6761 21.642C34.3314 21.3883 33.8636 21.2614 33.2727 21.2614C32.8712 21.2614 32.5322 21.3182 32.2557 21.4318C31.9792 21.5417 31.767 21.6951 31.6193 21.892C31.4754 22.089 31.4034 22.3125 31.4034 22.5625C31.3958 22.7708 31.4394 22.9527 31.5341 23.108C31.6326 23.2633 31.767 23.3977 31.9375 23.5114C32.108 23.6212 32.3049 23.7178 32.5284 23.8011C32.7519 23.8807 32.9905 23.9489 33.2443 24.0057L34.2898 24.2557C34.7973 24.3693 35.2633 24.5208 35.6875 24.7102C36.1117 24.8996 36.4792 25.1326 36.7898 25.4091C37.1004 25.6856 37.3409 26.0114 37.5114 26.3864C37.6856 26.7614 37.7746 27.1913 37.7784 27.6761C37.7746 28.3883 37.5928 29.0057 37.233 29.5284C36.8769 30.0473 36.3617 30.4508 35.6875 30.7386C35.017 31.0227 34.2083 31.1648 33.2614 31.1648C32.322 31.1648 31.5038 31.0208 30.8068 30.733C30.1136 30.4451 29.572 30.0189 29.1818 29.4545C28.7955 28.8864 28.5928 28.1837 28.5739 27.3466H30.9545C30.9811 27.7367 31.0928 28.0625 31.2898 28.3239C31.4905 28.5814 31.7576 28.7765 32.0909 28.9091C32.428 29.0379 32.8087 29.1023 33.233 29.1023C33.6496 29.1023 34.0114 29.0417 34.3182 28.9205C34.6288 28.7992 34.8693 28.6307 35.0398 28.4148C35.2102 28.1989 35.2955 27.9508 35.2955 27.6705C35.2955 27.4091 35.2178 27.1894 35.0625 27.0114C34.911 26.8333 34.6875 26.6818 34.392 26.5568C34.1004 26.4318 33.7424 26.3182 33.3182 26.2159L32.0511 25.8977C31.0701 25.6591 30.2955 25.286 29.7273 24.7784C29.1591 24.2708 28.8769 23.5871 28.8807 22.7273C28.8769 22.0227 29.0644 21.4072 29.4432 20.8807C29.8258 20.3542 30.3504 19.9432 31.017 19.6477C31.6837 19.3523 32.4413 19.2045 33.2898 19.2045C34.1534 19.2045 34.9072 19.3523 35.5511 19.6477C36.1989 19.9432 36.7027 20.3542 37.0625 20.8807C37.4223 21.4072 37.608 22.017 37.6193 22.7102H35.2614ZM38.9901 21.392V19.3636H48.5469V21.392H44.9844V31H42.5526V21.392H38.9901ZM50.1207 31V19.3636H57.9616V21.392H52.581V24.1648H57.5582V26.1932H52.581V28.9716H57.9844V31H50.1207ZM53.1889 18.2386L54.3935 15.6534H56.6321L54.8991 18.2386H53.1889ZM59.4744 21.392V19.3636H69.0312V21.392H65.4688V31H63.0369V21.392H59.4744ZM73.0653 19.3636V31H70.6051V19.3636H73.0653ZM85.3565 23.4375H82.8679C82.8224 23.1155 82.7296 22.8295 82.5895 22.5795C82.4493 22.3258 82.2694 22.1098 82.0497 21.9318C81.83 21.7538 81.5762 21.6174 81.2884 21.5227C81.0043 21.428 80.6955 21.3807 80.3622 21.3807C79.7599 21.3807 79.2353 21.5303 78.7884 21.8295C78.3414 22.125 77.9948 22.5568 77.7486 23.125C77.5024 23.6894 77.3793 24.375 77.3793 25.1818C77.3793 26.0114 77.5024 26.7083 77.7486 27.2727C77.9986 27.8371 78.3471 28.2633 78.794 28.5511C79.241 28.839 79.758 28.983 80.3452 28.983C80.6747 28.983 80.9796 28.9394 81.2599 28.8523C81.544 28.7652 81.7959 28.6383 82.0156 28.4716C82.2353 28.3011 82.4171 28.0947 82.5611 27.8523C82.7088 27.6098 82.8111 27.3333 82.8679 27.0227L85.3565 27.0341C85.2921 27.5682 85.1312 28.0833 84.8736 28.5795C84.6198 29.072 84.277 29.5133 83.8452 29.9034C83.4171 30.2898 82.9058 30.5966 82.3111 30.8239C81.7202 31.0473 81.0516 31.1591 80.3054 31.1591C79.2675 31.1591 78.3395 30.9242 77.5213 30.4545C76.7069 29.9848 76.063 29.3049 75.5895 28.4148C75.1198 27.5246 74.8849 26.447 74.8849 25.1818C74.8849 23.9129 75.1236 22.8333 75.6009 21.9432C76.0781 21.053 76.7259 20.375 77.544 19.9091C78.3622 19.4394 79.2827 19.2045 80.3054 19.2045C80.9796 19.2045 81.6046 19.2992 82.1804 19.4886C82.7599 19.678 83.2732 19.9545 83.7202 20.3182C84.1671 20.678 84.5308 21.1193 84.8111 21.642C85.0952 22.1648 85.277 22.7633 85.3565 23.4375ZM88.9077 31H86.2713L90.2884 19.3636H93.4588L97.4702 31H94.8338L91.919 22.0227H91.8281L88.9077 31ZM88.7429 26.4261H94.9702V28.3466H88.7429V26.4261Z" fill="black"/>
</svg>
